# xmcd CD database file
#
# Track frame offsets:
#	150
#	23175
#	55979
#	75611
#	107974
#	132799
#	153996
#	179196
#	205559
#	230442
#	272667
#	304617
#
# Disc length: 4525 seconds
#
# Revision: 0
# Processed by: cddbd v1.5.2PL0 Copyright (c) Steve Scherf et al.
# Submitted via: CDex 1.70beta2
#
DISCID=9d11ab0c
DTITLE=Cannonball Adderley Quintet - Them Dirty Blues
DYEAR=1900
DGENRE=Jazz
TTITLE0=Work Song [with Barry Harris]
TTITLE1=Jeannine
TTITLE2=Easy Living
TTITLE3=Them Dirty Blues
TTITLE4=Dat Dere
TTITLE5=Del Sasser
TTITLE6=Soon
TTITLE7=Work Song [with Bobby Timmons]
TTITLE8=Dat Dere [alt tk]
TTITLE9=Del Sasser[live at Newport 1960]
TTITLE10=Work Song [live at Newport 1960]
TTITLE11=Stay On It [live at Newport1960]
EXTD=
EXTT0=
EXTT1=
EXTT2=
EXTT3=
EXTT4=
EXTT5=
EXTT6=
EXTT7=
EXTT8=
EXTT9=
EXTT10=
EXTT11=
PLAYORDER=
